<svg xmlns="http://www.w3.org/2000/svg" viewBox="0 0 32 32" role="img" aria-label="Trophy">
  <rect width="32" height="32" rx="7" fill="#faf6f0"/>
  <path fill="#e07a5f" d="M10 9h12v2.2c0 3.1-1.6 5.8-4 7.3l1.1 4.2H12.9l1.1-4.2c-2.4-1.5-4-4.2-4-7.3V9z"/>
  <path fill="#c45d42" d="M8 9h2v2c0 2.5 1.2 4.7 3 6.1V19H7v-1.9c-1.8-1.4-3-3.6-3-6.1V9h2zm16 0h2v2c0 2.5-1.2 4.7-3 6.1V19h-6v-1.9c1.8-1.4 3-3.6 3-6.1V9z"/>
  <rect x="11" y="22.5" width="10" height="2.2" rx="1.1" fill="#81b29a"/>
  <rect x="9.5" y="25.2" width="13" height="2.3" rx="1.1" fill="#c45d42"/>
</svg>
